<?xml version="1.0" standalone="no"?>
<!DOCTYPE svg PUBLIC "-//W3C//DTD SVG 20010904//EN"
 "http://www.w3.org/TR/2001/REC-SVG-20010904/DTD/svg10.dtd">
<svg version="1.0" xmlns="http://www.w3.org/2000/svg"
 width="512.000000pt" height="512.000000pt" viewBox="0 0 512.000000 512.000000"
 preserveAspectRatio="xMidYMid meet">

<g transform="translate(0.000000,512.000000) scale(0.100000,-0.100000)"
fill="#000000" stroke="none">
<path d="M770 4865 l0 -255 -130 0 -130 0 0 -130 0 -130 -255 0 -255 0 0 -215
0 -215 255 0 255 0 0 -100 0 -100 -255 0 -255 0 0 -215 0 -215 255 0 255 0 0
-100 0 -100 -255 0 -255 0 0 -215 0 -215 255 0 255 0 0 -100 0 -100 -255 0
-255 0 0 -215 0 -215 255 0 255 0 0 -100 0 -100 -255 0 -255 0 0 -215 0 -215
255 0 255 0 0 -100 0 -100 -255 0 -255 0 0 -215 0 -215 255 0 255 0 0 -130 0
-130 130 0 130 0 0 -255 0 -255 215 0 215 0 0 255 0 255 100 0 100 0 0 -255 0
-255 215 0 215 0 0 255 0 255 100 0 100 0 0 -255 0 -255 215 0 215 0 0 255 0
255 100 0 100 0 0 -255 0 -255 215 0 215 0 0 255 0 255 100 0 100 0 0 -255 0
-255 215 0 215 0 0 255 0 255 100 0 100 0 0 -255 0 -255 215 0 215 0 0 255 0
255 130 0 130 0 0 130 0 130 255 0 255 0 0 215 0 215 -254 0 c-140 0 -256 4
-258 9 -1 5 -36 12 -75 16 l-73 7 0 -286 0 -286 -1635 0 -1635 0 0 125 0 125
115 0 115 0 0 495 0 495 25 0 c25 0 25 1 25 80 l0 80 -100 0 -100 0 0 -500 0
-500 -40 0 -40 0 0 240 c0 207 2 240 15 240 13 0 15 43 15 325 l0 325 125 0
125 0 0 80 0 80 -140 0 -140 0 0 65 0 65 140 0 140 0 0 80 0 80 -140 0 -140 0
0 65 0 65 140 0 140 0 0 80 0 80 -140 0 -140 0 0 565 0 565 25 0 25 0 0 -500
0 -500 115 0 115 0 0 80 0 80 -35 0 -35 0 0 495 0 495 -105 0 -105 0 0 125 0
125 1635 0 1635 0 0 -1545 0 -1545 75 0 c60 0 75 3 75 15 0 13 35 15 255 15
l255 0 0 215 0 215 -255 0 -255 0 0 100 0 100 255 0 255 0 0 215 0 215 -255 0
-255 0 0 100 0 100 255 0 255 0 0 215 0 215 -255 0 -255 0 0 100 0 100 255 0
255 0 0 215 0 215 -255 0 -255 0 0 100 0 100 255 0 255 0 0 215 0 215 -255 0
-255 0 0 130 0 130 -130 0 -130 0 0 255 0 255 -215 0 -215 0 0 -255 0 -255
-100 0 -100 0 0 255 0 255 -215 0 -215 0 0 -255 0 -255 -100 0 -100 0 0 255 0
255 -215 0 -215 0 0 -255 0 -255 -100 0 -100 0 0 255 0 255 -215 0 -215 0 0
-255 0 -255 -100 0 -100 0 0 255 0 255 -215 0 -215 0 0 -255 0 -255 -100 0
-100 0 0 255 0 255 -215 0 -215 0 0 -255z m280 -75 l0 -180 -65 0 -65 0 0 180
0 180 65 0 65 0 0 -180z m630 0 l0 -180 -65 0 -65 0 0 180 0 180 65 0 65 0 0
-180z m630 0 l0 -180 -65 0 -65 0 0 180 0 180 65 0 65 0 0 -180z m630 0 l0
-180 -65 0 -65 0 0 180 0 180 65 0 65 0 0 -180z m630 0 l0 -180 -65 0 -65 0 0
180 0 180 65 0 65 0 0 -180z m630 0 l0 -180 -65 0 -65 0 0 180 0 180 65 0 65
0 0 -180z m-3690 -655 l0 -65 -180 0 -180 0 0 65 0 65 180 0 180 0 0 -65z
m4460 0 l0 -65 -180 0 -180 0 0 65 0 65 180 0 180 0 0 -65z m-4460 -630 l0
-65 -180 0 -180 0 0 65 0 65 180 0 180 0 0 -65z m4460 0 l0 -65 -180 0 -180 0
0 65 0 65 180 0 180 0 0 -65z m-4460 -630 l0 -65 -180 0 -180 0 0 65 0 65 180
0 180 0 0 -65z m4460 0 l0 -65 -180 0 -180 0 0 65 0 65 180 0 180 0 0 -65z
m-4460 -630 l0 -65 -180 0 -180 0 0 65 0 65 180 0 180 0 0 -65z m4460 0 l0
-65 -180 0 -180 0 0 65 0 65 180 0 180 0 0 -65z m-4460 -630 l0 -65 -180 0
-180 0 0 65 0 65 180 0 180 0 0 -65z m4460 0 l0 -65 -180 0 -180 0 0 65 0 65
180 0 180 0 0 -65z m-4460 -630 l0 -65 -180 0 -180 0 0 65 0 65 180 0 180 0 0
-65z m4460 0 l0 -65 -180 0 -180 0 0 65 0 65 180 0 180 0 0 -65z m-3920 -655
l0 -180 -65 0 -65 0 0 180 0 180 65 0 65 0 0 -180z m630 0 l0 -180 -65 0 -65
0 0 180 0 180 65 0 65 0 0 -180z m630 0 l0 -180 -65 0 -65 0 0 180 0 180 65 0
65 0 0 -180z m630 0 l0 -180 -65 0 -65 0 0 180 0 180 65 0 65 0 0 -180z m630
0 l0 -180 -65 0 -65 0 0 180 0 180 65 0 65 0 0 -180z m630 0 l0 -180 -65 0
-65 0 0 180 0 180 65 0 65 0 0 -180z"/>
<path d="M3790 3535 l0 -245 245 0 245 0 0 245 0 245 -245 0 -245 0 0 -245z"/>
<path d="M1900 3460 l0 -90 -75 0 -75 0 0 -75 0 -75 -90 0 -90 0 0 -80 0 -80
90 0 90 0 0 -65 0 -65 -90 0 -90 0 0 -80 0 -80 90 0 90 0 0 -65 0 -65 -90 0
-90 0 0 -80 0 -80 90 0 90 0 0 -65 0 -65 -90 0 -90 0 0 -80 0 -80 90 0 90 0 0
-65 0 -65 -90 0 -90 0 0 -80 0 -80 90 0 90 0 0 -75 0 -75 75 0 75 0 0 -90 0
-90 80 0 80 0 0 90 0 90 65 0 65 0 0 -90 0 -90 80 0 80 0 0 90 0 90 65 0 65 0
0 -90 0 -90 80 0 80 0 0 90 0 90 65 0 65 0 0 -90 0 -90 80 0 80 0 0 90 0 90
65 0 65 0 0 -90 0 -90 80 0 80 0 0 90 0 90 75 0 75 0 0 75 0 75 90 0 90 0 0
80 0 80 -90 0 -90 0 0 65 0 65 90 0 90 0 0 80 0 80 -90 0 -90 0 0 65 0 65 90
0 90 0 0 80 0 80 -90 0 -90 0 0 65 0 65 90 0 90 0 0 80 0 80 -90 0 -90 0 0 65
0 65 90 0 90 0 0 80 0 80 -90 0 -90 0 0 75 0 75 -75 0 -75 0 0 90 0 90 -80 0
-80 0 0 -90 0 -90 -65 0 -65 0 0 90 0 90 -80 0 -80 0 0 -90 0 -90 -65 0 -65 0
0 90 0 90 -80 0 -80 0 0 -90 0 -90 -65 0 -65 0 0 90 0 90 -80 0 -80 0 0 -90 0
-90 -65 0 -65 0 0 90 0 90 -80 0 -80 0 0 -90z m1320 -900 l0 -660 -660 0 -660
0 0 660 0 660 660 0 660 0 0 -660z"/>
<path d="M2030 3045 l0 -75 75 0 75 0 0 75 0 75 -75 0 -75 0 0 -75z"/>
<path d="M2280 3045 l0 -75 75 0 75 0 0 75 0 75 -75 0 -75 0 0 -75z"/>
<path d="M2530 3045 l0 -75 75 0 75 0 0 75 0 75 -75 0 -75 0 0 -75z"/>
<path d="M2044 2166 c-3 -7 -4 -42 -2 -77 l3 -64 168 -3 167 -2 0 80 0 80
-165 0 c-130 0 -167 -3 -171 -14z"/>
<path d="M3790 2975 l0 -245 245 0 245 0 0 245 0 245 -245 0 -245 0 0 -245z"/>
<path d="M4060 2025 l0 -315 75 0 75 0 0 315 0 315 -75 0 -75 0 0 -315z"/>
<path d="M3310 1245 l0 -75 75 0 75 0 0 75 0 75 -75 0 -75 0 0 -75z"/>
<path d="M3560 1245 l0 -75 75 0 75 0 0 75 0 75 -75 0 -75 0 0 -75z"/>
<path d="M3810 1245 l0 -75 75 0 75 0 0 75 0 75 -75 0 -75 0 0 -75z"/>
<path d="M4060 1245 l0 -75 75 0 75 0 0 75 0 75 -75 0 -75 0 0 -75z"/>
<path d="M3310 985 l0 -75 75 0 75 0 0 75 0 75 -75 0 -75 0 0 -75z"/>
<path d="M3560 985 l0 -75 75 0 75 0 0 75 0 75 -75 0 -75 0 0 -75z"/>
<path d="M3810 985 l0 -75 75 0 75 0 0 75 0 75 -75 0 -75 0 0 -75z"/>
<path d="M4060 985 l0 -75 75 0 75 0 0 75 0 75 -75 0 -75 0 0 -75z"/>
</g>
</svg>
